<?xml version="1.0" encoding="UTF-8" standalone="no"?>
<svg
   xmlns:dc="http://purl.org/dc/elements/1.1/"
   xmlns:cc="http://creativecommons.org/ns#"
   xmlns:rdf="http://www.w3.org/1999/02/22-rdf-syntax-ns#"
   xmlns:svg="http://www.w3.org/2000/svg"
   xmlns="http://www.w3.org/2000/svg"
   xmlns:sodipodi="http://sodipodi.sourceforge.net/DTD/sodipodi-0.dtd"
   xmlns:inkscape="http://www.inkscape.org/namespaces/inkscape"
   width="120.00004"
   height="60"
   viewBox="0 0 77.102425 77.1024"
   version="1.1"
   id="svg12"
   sodipodi:docname="Star_Wars_Logo_white.svg"
   inkscape:version="0.92.3 (2405546, 2018-03-11)">
  <metadata
     id="metadata18">
    <rdf:RDF>
      <cc:Work
         rdf:about="">
        <dc:format>image/svg+xml</dc:format>
        <dc:type
           rdf:resource="http://purl.org/dc/dcmitype/StillImage" />
        <dc:title></dc:title>
      </cc:Work>
    </rdf:RDF>
  </metadata>
  <defs
     id="defs16" />
  <sodipodi:namedview
     pagecolor="#ffffff"
     bordercolor="#666666"
     borderopacity="1"
     objecttolerance="10"
     gridtolerance="10"
     guidetolerance="10"
     inkscape:pageopacity="0"
     inkscape:pageshadow="2"
     inkscape:window-width="702"
     inkscape:window-height="480"
     id="namedview14"
     showgrid="false"
     inkscape:zoom="1.2633333"
     inkscape:cx="101.06817"
     inkscape:cy="51.679768"
     inkscape:window-x="0"
     inkscape:window-y="0"
     inkscape:window-maximized="0"
     inkscape:current-layer="svg12"
     fit-margin-top="0"
     fit-margin-left="0"
     fit-margin-right="0"
     fit-margin-bottom="0" />
  <path
     style="clip-rule:evenodd;fill:#ffffff;fill-rule:evenodd"
     inkscape:connector-curvature="0"
     id="path4"
     d="M -2.7560003,-0.60459783 H -25.346 c -4.671,0 -7.445,2.26800003 -8.325,6.80300003 -0.881,4.5339998 1.624,9.5089998 7.513,14.9239998 3.57,2.809 2.962,4.146 -1.827,4.011 h -20.204 v 10.913 h 31.98 c 5.279,-0.879 7.9689996,-3.587 8.0709996,-8.122 0.102,-4.535 -2.5889996,-9.205 -8.0709996,-14.011 -3.062,-2.538 -2.419,-3.739 1.929,-3.604 H 4.4929999 v 25.736 H 16.423 v -25.736 H 28.048 V -0.60459783 Z M 25.781,36.045402 37.837,-0.60459783 H 56.036 L 68.296,36.045402 H 54.437 l -2.309,-6.599 H 41.239 l -2.311,6.599 z M 46.976,7.5174022 41.722,22.036402 h 10.102 z" />
  <path
     style="clip-rule:evenodd;fill:#ffffff;fill-rule:evenodd;stroke-width:0.97116101"
     inkscape:connector-curvature="0"
     id="path6"
     d="M 71.659305,36.364844 V 0 h 22.67726 c 2.799368,0.26889148 5.099698,1.0398461 6.900985,2.3168325 1.80225,1.2759943 3.12066,2.9885652 3.9581,5.1377126 0.64257,3.2237209 0.67393,5.7082389 0.0951,7.4545449 -0.57888,1.746306 -1.59122,3.206853 -3.03891,4.382633 -1.44769,1.174788 -3.523687,2.098545 -6.223248,2.769285 l 2.602605,3.476737 H 115.65364 V 36.365836 H 95.302323 L 84.252185,24.353035 V 36.365836 H 71.659305 Z M 84.252185,9.0659095 v 6.6984735 h 8.783078 c 0.465769,0 0.972412,-0.179592 1.518978,-0.540759 0.547516,-0.361168 0.837433,-1.271034 0.870702,-2.732573 C 95.343193,11.097975 95.016208,10.178187 94.446829,9.7336732 93.874598,9.2891589 93.396472,9.0669018 93.011499,9.0669018 H 84.252185 Z M -12.929149,61.690255 -16.596369,77.1024 H -27.936425 L -38.551212,40.735571 h 11.339106 l 4.776511,15.716757 4.149149,-15.716757 H -7.8636706 L -3.0130163,56.452328 0.21980239,40.735571 H 11.558908 L 2.8252588,77.1024 H -8.514797 Z M 6.3555998,77.1024 17.815426,40.735571 H 35.114477 L 46.768214,77.1024 H 33.593597 L 31.398779,70.553751 H 21.049195 L 18.852475,77.1024 Z M 26.501547,48.79537 21.50736,63.200413 h 9.602452 z" />
  <path
     style="clip-rule:evenodd;fill:#ffffff;fill-rule:evenodd"
     inkscape:connector-curvature="0"
     id="path8"
     d="m 100.269,51.364402 13.689,-0.057 v -10.914 l -24.756,0.057 c -4.672,0 -7.445,2.268 -8.326,6.803 -0.879,4.535 1.625,9.51 7.514,14.924 3.57,2.811 2.961,4.146 -1.828,4.012 H 69.404 l -2.742,-3.504 c 2.844,-0.676 5.027,-1.607 6.551,-2.791 1.521,-1.186 2.588,-2.656 3.197,-4.416 0.607,-1.762 0.574,-4.266 -0.102,-7.514 -0.879,-2.166 -2.268,-3.891 -4.162,-5.178 -1.896,-1.287 -4.314,-2.064 -7.26,-2.336 h -23.86 v 36.652 h 13.25 v -12.107 l 11.625,12.107 h 32.437999 c 5.281001,-0.881 7.969001,-3.588 8.070001,-8.123 0.101,-4.535 -2.588,-9.205 -8.070001,-14.01 -3.061,-2.538 -2.42,-3.74 1.930001,-3.605 z m -35.155,4.43 c -0.576,0.363 -1.107,0.547 -1.6,0.547 h -9.238 v -6.752 h 9.213 c 0.408,0 0.91,0.223 1.51,0.672 0.602,0.449 0.945,1.375 1.029,2.779 -0.035,1.473 -0.337,2.391 -0.914,2.754 z" />
</svg>
